<svg width="124" height="32" viewBox="0 0 124 32" fill="none" xmlns="http://www.w3.org/2000/svg">
<path d="M18.1599 6.63898C17.502 2.52282 18.6864 0 14.4753 0C10.2644 0 0 8.63071 0 20.5809C0 26.9544 5.13218 32 11.3171 32C17.502 32 22.6341 26.8215 22.6341 20.5809C22.6341 15.6681 18.9495 12.083 18.1599 6.63898Z" fill="#FF671D"/>
<path d="M11.3209 28.0968C15.4159 28.0968 18.7355 24.7772 18.7355 20.6822C18.7355 16.5872 15.4159 13.2676 11.3209 13.2676C7.2259 13.2676 3.90625 16.5872 3.90625 20.6822C3.90625 24.7772 7.2259 28.0968 11.3209 28.0968Z" fill="#FFDB1D"/>
<path d="M46.5845 27.7078L42.2645 21.4678H42.0085H37.4965V27.7078H32.3125V5.30783H42.0085C43.9925 5.30783 45.7098 5.63852 47.1605 6.29983C48.6325 6.96114 49.7632 7.89983 50.5525 9.11583C51.3418 10.3318 51.7365 11.7718 51.7365 13.4358C51.7365 15.0998 51.3312 16.5398 50.5205 17.7558C49.7312 18.9505 48.6005 19.8678 47.1285 20.5078L52.1525 27.7078H46.5845ZM46.4885 13.4358C46.4885 12.1771 46.0832 11.2171 45.2725 10.5558C44.4618 9.87314 43.2778 9.53183 41.7205 9.53183H37.4965V17.3398H41.7205C43.2778 17.3398 44.4618 16.9985 45.2725 16.3158C46.0832 15.6331 46.4885 14.6731 46.4885 13.4358ZM66.6917 28.0918C64.3664 28.0918 62.265 27.5905 60.3877 26.5878C58.5317 25.5851 57.0704 24.2091 56.0037 22.4598C54.9584 20.6891 54.4357 18.7051 54.4357 16.5078C54.4357 14.3105 54.9584 12.3371 56.0037 10.5878C57.0704 8.81714 58.5317 7.43052 60.3877 6.42783C62.265 5.42516 64.3664 4.92383 66.6917 4.92383C69.017 4.92383 71.1074 5.42516 72.9634 6.42783C74.8194 7.43052 76.2813 8.81714 77.3474 10.5878C78.4143 12.3371 78.9474 14.3105 78.9474 16.5078C78.9474 18.7051 78.4143 20.6891 77.3474 22.4598C76.2813 24.2091 74.8194 25.5851 72.9634 26.5878C71.1074 27.5905 69.017 28.0918 66.6917 28.0918ZM66.6917 23.6758C68.0144 23.6758 69.209 23.3771 70.2757 22.7798C71.3424 22.1611 72.1744 21.3078 72.7714 20.2198C73.3904 19.1318 73.6994 17.8945 73.6994 16.5078C73.6994 15.1211 73.3904 13.8838 72.7714 12.7958C72.1744 11.7078 71.3424 10.8651 70.2757 10.2678C69.209 9.64914 68.0144 9.33983 66.6917 9.33983C65.369 9.33983 64.1744 9.64914 63.1077 10.2678C62.041 10.8651 61.1984 11.7078 60.5797 12.7958C59.9824 13.8838 59.6837 15.1211 59.6837 16.5078C59.6837 17.8945 59.9824 19.1318 60.5797 20.2198C61.1984 21.3078 62.041 22.1611 63.1077 22.7798C64.1744 23.3771 65.369 23.6758 66.6917 23.6758ZM97.9796 16.1558H102.716V25.2438C101.5 26.1611 100.092 26.8651 98.4916 27.3558C96.8916 27.8465 95.2807 28.0918 93.6596 28.0918C91.3345 28.0918 89.2436 27.6011 87.3876 26.6198C85.5316 25.6171 84.0705 24.2411 83.0036 22.4918C81.9585 20.7211 81.4356 18.7265 81.4356 16.5078C81.4356 14.2891 81.9585 12.3051 83.0036 10.5558C84.0705 8.78514 85.5425 7.40914 87.4196 6.42783C89.2967 5.42516 91.4087 4.92383 93.7556 4.92383C95.7185 4.92383 97.4996 5.2545 99.0996 5.91583C100.7 6.57714 102.044 7.53714 103.132 8.79583L99.8036 11.8678C98.2036 10.1825 96.2727 9.33983 94.0116 9.33983C92.5825 9.33983 91.3127 9.63852 90.2036 10.2358C89.0945 10.8331 88.2305 11.6758 87.6116 12.7638C86.9927 13.8518 86.6836 15.0998 86.6836 16.5078C86.6836 17.8945 86.9927 19.1318 87.6116 20.2198C88.2305 21.3078 89.0836 22.1611 90.1716 22.7798C91.2807 23.3771 92.5396 23.6758 93.9476 23.6758C95.4407 23.6758 96.7847 23.3558 97.9796 22.7158V16.1558ZM107.531 5.30783H112.715V27.7078H107.531V5.30783ZM118.031 5.30783H123.215V27.7078H118.031V5.30783Z" fill="#2A3B4F"/>
</svg>
