<svg width="154" height="34" viewBox="0 0 154 34" fill="none" xmlns="http://www.w3.org/2000/svg">
<path d="M26.7594 3.79487C29.0114 3.04912 31.1537 5.17758 30.4031 7.41486L23.3622 28.4003C22.4332 31.1692 18.4175 30.9419 17.811 28.0862L16.1323 20.1822C15.8968 19.0734 15.0247 18.207 13.9086 17.973L5.95307 16.3052C3.07858 15.7026 2.84985 11.713 5.63688 10.79L26.7594 3.79487Z" fill="#197BEE"></path>
<path d="M19.7316 12.3097C20.0787 13.1547 20.773 13.8187 21.583 14.1205C23.9402 15.0085 25.6675 16.9402 26.4401 19.2264L23.3623 28.3999C22.9265 29.699 21.8111 30.3386 20.6871 30.3566C20.6323 30.3561 20.5718 30.3552 20.5062 30.354C19.2961 30.3017 18.1177 29.5297 17.8111 28.0857L17.1428 24.9394L17.7065 25.2264C19.4423 25.8904 21.3515 24.985 21.988 23.1743C22.6244 21.3636 21.7565 19.3716 20.0209 18.7078C17.9958 17.9231 16.3758 16.4141 15.45 14.362C14.5243 12.3701 14.4085 10.0765 15.1607 7.96395C15.2046 7.83735 15.251 7.71249 15.3 7.58944L25.0242 4.36914L24.3111 6.41451C24.0849 7.06357 23.3507 7.36958 22.6595 7.38518C21.3319 7.41515 20.1021 8.27019 19.6158 9.65398C19.3265 10.5594 19.3843 11.4647 19.7316 12.3097Z" fill="#38E2ED"></path>
<path d="M45.7894 27.613C44.2054 27.613 42.6702 27.3895 41.184 26.9427C39.7174 26.4958 38.5538 25.9032 37.6934 25.165L39.0134 22.2215C39.8542 22.8821 40.8809 23.4261 42.0934 23.8535C43.3254 24.2615 44.5574 24.4655 45.7894 24.4655C47.3147 24.4655 48.4489 24.2227 49.192 23.737C49.9547 23.2512 50.336 22.6101 50.336 21.8135C50.336 21.2307 50.1209 20.7547 49.6907 20.3855C49.28 19.997 48.752 19.6958 48.1067 19.4821C47.4614 19.2684 46.5814 19.0255 45.4667 18.7535C43.9022 18.3844 42.6311 18.0152 41.6534 17.6461C40.6951 17.277 39.864 16.7038 39.16 15.9267C38.4756 15.1301 38.1334 14.0615 38.1334 12.721C38.1334 11.5941 38.4365 10.5741 39.0427 9.66096C39.6685 8.72838 40.5974 7.9901 41.8294 7.4461C43.0809 6.9021 44.6062 6.6301 46.4054 6.6301C47.6569 6.6301 48.8889 6.78553 50.1014 7.09639C51.3138 7.40724 52.36 7.8541 53.24 8.43696L52.0374 11.3804C51.1378 10.8558 50.1991 10.4575 49.2214 10.1855C48.2436 9.91353 47.2951 9.77753 46.376 9.77753C44.8702 9.77753 43.7458 10.0301 43.0027 10.5352C42.2791 11.0404 41.9174 11.7107 41.9174 12.5461C41.9174 13.129 42.1227 13.605 42.5334 13.9741C42.9636 14.3432 43.5014 14.6347 44.1467 14.8484C44.792 15.0621 45.672 15.305 46.7867 15.577C48.312 15.9267 49.5636 16.2958 50.5414 16.6844C51.5191 17.0535 52.3502 17.6267 53.0347 18.4038C53.7387 19.181 54.0907 20.2301 54.0907 21.5512C54.0907 22.6781 53.7778 23.6981 53.152 24.6112C52.5458 25.5244 51.6169 26.253 50.3654 26.797C49.1138 27.341 47.5885 27.613 45.7894 27.613ZM66.3493 26.4764C65.9191 26.8261 65.3911 27.0884 64.7653 27.2632C64.1591 27.4381 63.5138 27.5255 62.8293 27.5255C61.1084 27.5255 59.7787 27.0787 58.84 26.185C57.9013 25.2912 57.432 23.9895 57.432 22.2798V14.7901H54.8507V11.8758H57.432V8.32039H61.0987V11.8758H65.2933V14.7901H61.0987V22.1924C61.0987 22.9501 61.2845 23.533 61.656 23.941C62.0276 24.3295 62.5653 24.5238 63.2693 24.5238C64.0907 24.5238 64.7751 24.3101 65.3227 23.8827L66.3493 26.4764ZM74.7629 11.5844C77.0704 11.5844 78.8304 12.1381 80.0429 13.2455C81.2749 14.3335 81.8909 15.985 81.8909 18.1998V27.3215H78.4295V25.4272C77.9798 26.1072 77.3344 26.6318 76.4935 27.001C75.6722 27.3507 74.6749 27.5255 73.5015 27.5255C72.3282 27.5255 71.3015 27.3312 70.4215 26.9427C69.5415 26.5347 68.8571 25.981 68.3682 25.2815C67.8989 24.5627 67.6642 23.7564 67.6642 22.8627C67.6642 21.4638 68.1824 20.3467 69.2189 19.5112C70.2749 18.6564 71.9273 18.229 74.1762 18.229H78.2242V17.9958C78.2242 16.9078 77.8918 16.0724 77.2269 15.4895C76.5815 14.9067 75.6135 14.6152 74.3229 14.6152C73.4429 14.6152 72.5727 14.7512 71.7122 15.0232C70.8713 15.2952 70.1575 15.6741 69.5709 16.1598L68.1335 13.5078C68.9549 12.8861 69.9424 12.4101 71.0962 12.0798C72.25 11.7495 73.4722 11.5844 74.7629 11.5844ZM74.2642 24.8735C75.1833 24.8735 75.9949 24.6695 76.6989 24.2615C77.4224 23.8341 77.9309 23.2318 78.2242 22.4547V20.6478H74.4402C72.3282 20.6478 71.2722 21.3375 71.2722 22.717C71.2722 23.3775 71.5362 23.9021 72.0642 24.2907C72.5922 24.6792 73.3255 24.8735 74.2642 24.8735ZM89.5007 14.0324C90.5567 12.4004 92.4145 11.5844 95.074 11.5844V15.0524C94.7611 14.9941 94.4776 14.965 94.2233 14.965C92.7958 14.965 91.6811 15.3827 90.8793 16.2181C90.0776 17.0341 89.6767 18.2192 89.6767 19.7735V27.3215H86.01V11.7592H89.5007V14.0324ZM97.8065 6.92153H101.62V24.1158H112.356V27.3215H97.8065V6.92153ZM114.428 11.7592H118.094V27.3215H114.428V11.7592ZM116.276 9.19467C115.611 9.19467 115.054 8.99067 114.604 8.58267C114.154 8.15524 113.929 7.63067 113.929 7.00896C113.929 6.38724 114.154 5.87239 114.604 5.46439C115.054 5.03696 115.611 4.82324 116.276 4.82324C116.941 4.82324 117.498 5.02724 117.948 5.43524C118.398 5.82381 118.622 6.31924 118.622 6.92153C118.622 7.56267 118.398 8.10667 117.948 8.55353C117.518 8.98096 116.96 9.19467 116.276 9.19467ZM131.736 26.4764C131.306 26.8261 130.778 27.0884 130.152 27.2632C129.546 27.4381 128.9 27.5255 128.216 27.5255C126.495 27.5255 125.165 27.0787 124.227 26.185C123.288 25.2912 122.819 23.9895 122.819 22.2798V14.7901H120.238V11.8758H122.819V8.32039H126.485V11.8758H130.68V14.7901H126.485V22.1924C126.485 22.9501 126.671 23.533 127.043 23.941C127.414 24.3295 127.952 24.5238 128.656 24.5238C129.477 24.5238 130.162 24.3101 130.709 23.8827L131.736 26.4764ZM148.375 19.6278C148.375 19.8804 148.356 20.2398 148.317 20.7061H136.026C136.241 21.8524 136.798 22.7655 137.698 23.4455C138.617 24.1061 139.751 24.4364 141.101 24.4364C142.822 24.4364 144.239 23.873 145.354 22.7461L147.319 24.9901C146.615 25.8255 145.726 26.457 144.65 26.8844C143.574 27.3118 142.362 27.5255 141.013 27.5255C139.292 27.5255 137.776 27.1855 136.466 26.5055C135.156 25.8255 134.139 24.8832 133.415 23.6787C132.711 22.4547 132.359 21.0752 132.359 19.5404C132.359 18.025 132.702 16.665 133.386 15.4604C134.09 14.2364 135.058 13.2844 136.29 12.6044C137.522 11.9244 138.91 11.5844 140.455 11.5844C141.981 11.5844 143.34 11.9244 144.533 12.6044C145.745 13.265 146.684 14.2072 147.349 15.4312C148.033 16.6358 148.375 18.0347 148.375 19.6278ZM140.455 14.4987C139.282 14.4987 138.285 14.8484 137.463 15.5478C136.662 16.2278 136.173 17.141 135.997 18.2872H144.885C144.728 17.1604 144.249 16.2472 143.447 15.5478C142.646 14.8484 141.648 14.4987 140.455 14.4987Z" fill="#14202C"></path>
</svg>